<svg class="icon" viewBox="0 0 24 24" version="1.1" xmlns="http://www.w3.org/2000/svg">
    <path d="M12,21c-3.6,0-6.6-3-6.6-6.6C5.4,11,10.8,4,11.4,3.2C11.6,3.1,11.8,3,12,3s0.4,0.1,0.6,0.3c0.6,0.8,6.1,7.8,6.1,11.2C18.6,18.1,15.6,21,12,21zM12,4.8c-1.8,2.4-5.2,7.4-5.2,9.6c0,2.9,2.3,5.2,5.2,5.2s5.2-2.3,5.2-5.2C17.2,12.2,13.8,7.3,12,4.8z"/><path d="M12,18.2c-0.4,0-0.7-0.3-0.7-0.7s0.3-0.7,0.7-0.7c1.3,0,2.4-1.1,2.4-2.4c0-0.4,0.3-0.7,0.7-0.7c0.4,0,0.7,0.3,0.7,0.7C15.8,16.5,14.1,18.2,12,18.2z"/>
</svg>
